<svg width="24" height="24" viewBox="0 0 24 24" fill="none" xmlns="http://www.w3.org/2000/svg">
<g clip-path="url(#clip0_74_3667)">
<path d="M12 0.525024C5.67224 0.525024 0.524994 5.67227 0.524994 12C0.524994 18.3278 5.67224 23.475 12 23.475C18.3277 23.475 23.475 18.3278 23.475 12C23.475 5.67227 18.3277 0.525024 12 0.525024ZM12 21.525C8.98424 21.525 6.29624 20.112 4.55024 17.9175C5.76645 16.3262 7.46301 15.169 9.38849 14.6175C8.6952 14.1771 8.12427 13.5689 7.7286 12.8491C7.33293 12.1293 7.12531 11.3214 7.12499 10.5C7.12499 7.81202 9.31199 5.62502 12 5.62502C14.688 5.62502 16.875 7.81202 16.875 10.5C16.8743 11.3215 16.6665 12.1295 16.2707 12.8493C15.8749 13.5692 15.304 14.1776 14.6107 14.6183C16.5366 15.1694 18.2335 16.3266 19.4497 17.9183C17.7037 20.112 15.0157 21.525 12 21.525Z" fill="#717171"/>
</g>
<defs>
<clipPath id="clip0_74_3667">
<rect width="24" height="24" fill="white"/>
</clipPath>
</defs>
</svg>
